<?xml version="1.0" encoding="utf-8" standalone="no"?>
<!DOCTYPE svg PUBLIC "-//W3C//DTD SVG 1.1//EN"
  "http://www.w3.org/Graphics/SVG/1.1/DTD/svg11.dtd">
<svg xmlns:xlink="http://www.w3.org/1999/xlink" width="460.8pt" height="345.6pt" viewBox="0 0 460.8 345.6" xmlns="http://www.w3.org/2000/svg" version="1.1">
 <metadata>
  <rdf:RDF xmlns:dc="http://purl.org/dc/elements/1.1/" xmlns:cc="http://creativecommons.org/ns#" xmlns:rdf="http://www.w3.org/1999/02/22-rdf-syntax-ns#">
   <cc:Work>
    <dc:type rdf:resource="http://purl.org/dc/dcmitype/StillImage"/>
    <dc:date>2022-11-22T19:54:48.270931</dc:date>
    <dc:format>image/svg+xml</dc:format>
    <dc:creator>
     <cc:Agent>
      <dc:title>Matplotlib v3.5.1, https://matplotlib.org/</dc:title>
     </cc:Agent>
    </dc:creator>
   </cc:Work>
  </rdf:RDF>
 </metadata>
 <defs>
  <style type="text/css">*{stroke-linejoin: round; stroke-linecap: butt}</style>
 </defs>
 <g id="figure_1">
  <g id="patch_1">
   <path d="M 0 345.6 
L 460.8 345.6 
L 460.8 0 
L 0 0 
z
" style="fill: #ffffff"/>
  </g>
  <g id="axes_1">
   <g id="patch_2">
    <path d="M 57.6 307.584 
L 414.72 307.584 
L 414.72 41.472 
L 57.6 41.472 
z
" style="fill: #ffffff"/>
   </g>
   <g id="matplotlib.axis_1">
    <g id="xtick_1">
     <g id="line2d_1">
      <defs>
       <path id="m6a6eb9ddad" d="M 0 0 
L 0 3.5 
" style="stroke: #000000; stroke-width: 0.8"/>
      </defs>
      <g>
       <use xlink:href="#m6a6eb9ddad" x="73.79214" y="307.584" style="stroke: #000000; stroke-width: 0.8"/>
      </g>
     </g>
     <g id="text_1">
      <!-- 0 -->
      <g transform="translate(70.61089 322.182437)scale(0.1 -0.1)">
       <defs>
        <path id="DejaVuSans-30" d="M 2034 4250 
Q 1547 4250 1301 3770 
Q 1056 3291 1056 2328 
Q 1056 1369 1301 889 
Q 1547 409 2034 409 
Q 2525 409 2770 889 
Q 3016 1369 3016 2328 
Q 3016 3291 2770 3770 
Q 2525 4250 2034 4250 
z
M 2034 4750 
Q 2819 4750 3233 4129 
Q 3647 3509 3647 2328 
Q 3647 1150 3233 529 
Q 2819 -91 2034 -91 
Q 1250 -91 836 529 
Q 422 1150 422 2328 
Q 422 3509 836 4129 
Q 1250 4750 2034 4750 
z
" transform="scale(0.015625)"/>
       </defs>
       <use xlink:href="#DejaVuSans-30"/>
      </g>
     </g>
    </g>
    <g id="xtick_2">
     <g id="line2d_2">
      <g>
       <use xlink:href="#m6a6eb9ddad" x="114.379032" y="307.584" style="stroke: #000000; stroke-width: 0.8"/>
      </g>
     </g>
     <g id="text_2">
      <!-- 1000 -->
      <g transform="translate(101.654032 322.182437)scale(0.1 -0.1)">
       <defs>
        <path id="DejaVuSans-31" d="M 794 531 
L 1825 531 
L 1825 4091 
L 703 3866 
L 703 4441 
L 1819 4666 
L 2450 4666 
L 2450 531 
L 3481 531 
L 3481 0 
L 794 0 
L 794 531 
z
" transform="scale(0.015625)"/>
       </defs>
       <use xlink:href="#DejaVuSans-31"/>
       <use xlink:href="#DejaVuSans-30" x="63.623047"/>
       <use xlink:href="#DejaVuSans-30" x="127.246094"/>
       <use xlink:href="#DejaVuSans-30" x="190.869141"/>
      </g>
     </g>
    </g>
    <g id="xtick_3">
     <g id="line2d_3">
      <g>
       <use xlink:href="#m6a6eb9ddad" x="154.965923" y="307.584" style="stroke: #000000; stroke-width: 0.8"/>
      </g>
     </g>
     <g id="text_3">
      <!-- 2000 -->
      <g transform="translate(142.240923 322.182437)scale(0.1 -0.1)">
       <defs>
        <path id="DejaVuSans-32" d="M 1228 531 
L 3431 531 
L 3431 0 
L 469 0 
L 469 531 
Q 828 903 1448 1529 
Q 2069 2156 2228 2338 
Q 2531 2678 2651 2914 
Q 2772 3150 2772 3378 
Q 2772 3750 2511 3984 
Q 2250 4219 1831 4219 
Q 1534 4219 1204 4116 
Q 875 4013 500 3803 
L 500 4441 
Q 881 4594 1212 4672 
Q 1544 4750 1819 4750 
Q 2544 4750 2975 4387 
Q 3406 4025 3406 3419 
Q 3406 3131 3298 2873 
Q 3191 2616 2906 2266 
Q 2828 2175 2409 1742 
Q 1991 1309 1228 531 
z
" transform="scale(0.015625)"/>
       </defs>
       <use xlink:href="#DejaVuSans-32"/>
       <use xlink:href="#DejaVuSans-30" x="63.623047"/>
       <use xlink:href="#DejaVuSans-30" x="127.246094"/>
       <use xlink:href="#DejaVuSans-30" x="190.869141"/>
      </g>
     </g>
    </g>
    <g id="xtick_4">
     <g id="line2d_4">
      <g>
       <use xlink:href="#m6a6eb9ddad" x="195.552815" y="307.584" style="stroke: #000000; stroke-width: 0.8"/>
      </g>
     </g>
     <g id="text_4">
      <!-- 3000 -->
      <g transform="translate(182.827815 322.182437)scale(0.1 -0.1)">
       <defs>
        <path id="DejaVuSans-33" d="M 2597 2516 
Q 3050 2419 3304 2112 
Q 3559 1806 3559 1356 
Q 3559 666 3084 287 
Q 2609 -91 1734 -91 
Q 1441 -91 1130 -33 
Q 819 25 488 141 
L 488 750 
Q 750 597 1062 519 
Q 1375 441 1716 441 
Q 2309 441 2620 675 
Q 2931 909 2931 1356 
Q 2931 1769 2642 2001 
Q 2353 2234 1838 2234 
L 1294 2234 
L 1294 2753 
L 1863 2753 
Q 2328 2753 2575 2939 
Q 2822 3125 2822 3475 
Q 2822 3834 2567 4026 
Q 2313 4219 1838 4219 
Q 1578 4219 1281 4162 
Q 984 4106 628 3988 
L 628 4550 
Q 988 4650 1302 4700 
Q 1616 4750 1894 4750 
Q 2613 4750 3031 4423 
Q 3450 4097 3450 3541 
Q 3450 3153 3228 2886 
Q 3006 2619 2597 2516 
z
" transform="scale(0.015625)"/>
       </defs>
       <use xlink:href="#DejaVuSans-33"/>
       <use xlink:href="#DejaVuSans-30" x="63.623047"/>
       <use xlink:href="#DejaVuSans-30" x="127.246094"/>
       <use xlink:href="#DejaVuSans-30" x="190.869141"/>
      </g>
     </g>
    </g>
    <g id="xtick_5">
     <g id="line2d_5">
      <g>
       <use xlink:href="#m6a6eb9ddad" x="236.139707" y="307.584" style="stroke: #000000; stroke-width: 0.8"/>
      </g>
     </g>
     <g id="text_5">
      <!-- 4000 -->
      <g transform="translate(223.414707 322.182437)scale(0.1 -0.1)">
       <defs>
        <path id="DejaVuSans-34" d="M 2419 4116 
L 825 1625 
L 2419 1625 
L 2419 4116 
z
M 2253 4666 
L 3047 4666 
L 3047 1625 
L 3713 1625 
L 3713 1100 
L 3047 1100 
L 3047 0 
L 2419 0 
L 2419 1100 
L 313 1100 
L 313 1709 
L 2253 4666 
z
" transform="scale(0.015625)"/>
       </defs>
       <use xlink:href="#DejaVuSans-34"/>
       <use xlink:href="#DejaVuSans-30" x="63.623047"/>
       <use xlink:href="#DejaVuSans-30" x="127.246094"/>
       <use xlink:href="#DejaVuSans-30" x="190.869141"/>
      </g>
     </g>
    </g>
    <g id="xtick_6">
     <g id="line2d_6">
      <g>
       <use xlink:href="#m6a6eb9ddad" x="276.726598" y="307.584" style="stroke: #000000; stroke-width: 0.8"/>
      </g>
     </g>
     <g id="text_6">
      <!-- 5000 -->
      <g transform="translate(264.001598 322.182437)scale(0.1 -0.1)">
       <defs>
        <path id="DejaVuSans-35" d="M 691 4666 
L 3169 4666 
L 3169 4134 
L 1269 4134 
L 1269 2991 
Q 1406 3038 1543 3061 
Q 1681 3084 1819 3084 
Q 2600 3084 3056 2656 
Q 3513 2228 3513 1497 
Q 3513 744 3044 326 
Q 2575 -91 1722 -91 
Q 1428 -91 1123 -41 
Q 819 9 494 109 
L 494 744 
Q 775 591 1075 516 
Q 1375 441 1709 441 
Q 2250 441 2565 725 
Q 2881 1009 2881 1497 
Q 2881 1984 2565 2268 
Q 2250 2553 1709 2553 
Q 1456 2553 1204 2497 
Q 953 2441 691 2322 
L 691 4666 
z
" transform="scale(0.015625)"/>
       </defs>
       <use xlink:href="#DejaVuSans-35"/>
       <use xlink:href="#DejaVuSans-30" x="63.623047"/>
       <use xlink:href="#DejaVuSans-30" x="127.246094"/>
       <use xlink:href="#DejaVuSans-30" x="190.869141"/>
      </g>
     </g>
    </g>
    <g id="xtick_7">
     <g id="line2d_7">
      <g>
       <use xlink:href="#m6a6eb9ddad" x="317.31349" y="307.584" style="stroke: #000000; stroke-width: 0.8"/>
      </g>
     </g>
     <g id="text_7">
      <!-- 6000 -->
      <g transform="translate(304.58849 322.182437)scale(0.1 -0.1)">
       <defs>
        <path id="DejaVuSans-36" d="M 2113 2584 
Q 1688 2584 1439 2293 
Q 1191 2003 1191 1497 
Q 1191 994 1439 701 
Q 1688 409 2113 409 
Q 2538 409 2786 701 
Q 3034 994 3034 1497 
Q 3034 2003 2786 2293 
Q 2538 2584 2113 2584 
z
M 3366 4563 
L 3366 3988 
Q 3128 4100 2886 4159 
Q 2644 4219 2406 4219 
Q 1781 4219 1451 3797 
Q 1122 3375 1075 2522 
Q 1259 2794 1537 2939 
Q 1816 3084 2150 3084 
Q 2853 3084 3261 2657 
Q 3669 2231 3669 1497 
Q 3669 778 3244 343 
Q 2819 -91 2113 -91 
Q 1303 -91 875 529 
Q 447 1150 447 2328 
Q 447 3434 972 4092 
Q 1497 4750 2381 4750 
Q 2619 4750 2861 4703 
Q 3103 4656 3366 4563 
z
" transform="scale(0.015625)"/>
       </defs>
       <use xlink:href="#DejaVuSans-36"/>
       <use xlink:href="#DejaVuSans-30" x="63.623047"/>
       <use xlink:href="#DejaVuSans-30" x="127.246094"/>
       <use xlink:href="#DejaVuSans-30" x="190.869141"/>
      </g>
     </g>
    </g>
    <g id="xtick_8">
     <g id="line2d_8">
      <g>
       <use xlink:href="#m6a6eb9ddad" x="357.900381" y="307.584" style="stroke: #000000; stroke-width: 0.8"/>
      </g>
     </g>
     <g id="text_8">
      <!-- 7000 -->
      <g transform="translate(345.175381 322.182437)scale(0.1 -0.1)">
       <defs>
        <path id="DejaVuSans-37" d="M 525 4666 
L 3525 4666 
L 3525 4397 
L 1831 0 
L 1172 0 
L 2766 4134 
L 525 4134 
L 525 4666 
z
" transform="scale(0.015625)"/>
       </defs>
       <use xlink:href="#DejaVuSans-37"/>
       <use xlink:href="#DejaVuSans-30" x="63.623047"/>
       <use xlink:href="#DejaVuSans-30" x="127.246094"/>
       <use xlink:href="#DejaVuSans-30" x="190.869141"/>
      </g>
     </g>
    </g>
    <g id="xtick_9">
     <g id="line2d_9">
      <g>
       <use xlink:href="#m6a6eb9ddad" x="398.487273" y="307.584" style="stroke: #000000; stroke-width: 0.8"/>
      </g>
     </g>
     <g id="text_9">
      <!-- 8000 -->
      <g transform="translate(385.762273 322.182437)scale(0.1 -0.1)">
       <defs>
        <path id="DejaVuSans-38" d="M 2034 2216 
Q 1584 2216 1326 1975 
Q 1069 1734 1069 1313 
Q 1069 891 1326 650 
Q 1584 409 2034 409 
Q 2484 409 2743 651 
Q 3003 894 3003 1313 
Q 3003 1734 2745 1975 
Q 2488 2216 2034 2216 
z
M 1403 2484 
Q 997 2584 770 2862 
Q 544 3141 544 3541 
Q 544 4100 942 4425 
Q 1341 4750 2034 4750 
Q 2731 4750 3128 4425 
Q 3525 4100 3525 3541 
Q 3525 3141 3298 2862 
Q 3072 2584 2669 2484 
Q 3125 2378 3379 2068 
Q 3634 1759 3634 1313 
Q 3634 634 3220 271 
Q 2806 -91 2034 -91 
Q 1263 -91 848 271 
Q 434 634 434 1313 
Q 434 1759 690 2068 
Q 947 2378 1403 2484 
z
M 1172 3481 
Q 1172 3119 1398 2916 
Q 1625 2713 2034 2713 
Q 2441 2713 2670 2916 
Q 2900 3119 2900 3481 
Q 2900 3844 2670 4047 
Q 2441 4250 2034 4250 
Q 1625 4250 1398 4047 
Q 1172 3844 1172 3481 
z
" transform="scale(0.015625)"/>
       </defs>
       <use xlink:href="#DejaVuSans-38"/>
       <use xlink:href="#DejaVuSans-30" x="63.623047"/>
       <use xlink:href="#DejaVuSans-30" x="127.246094"/>
       <use xlink:href="#DejaVuSans-30" x="190.869141"/>
      </g>
     </g>
    </g>
    <g id="text_10">
     <!-- Number of Monte Carlo cycles -->
     <g transform="translate(160.731875 335.860562)scale(0.1 -0.1)">
      <defs>
       <path id="DejaVuSans-4e" d="M 628 4666 
L 1478 4666 
L 3547 763 
L 3547 4666 
L 4159 4666 
L 4159 0 
L 3309 0 
L 1241 3903 
L 1241 0 
L 628 0 
L 628 4666 
z
" transform="scale(0.015625)"/>
       <path id="DejaVuSans-75" d="M 544 1381 
L 544 3500 
L 1119 3500 
L 1119 1403 
Q 1119 906 1312 657 
Q 1506 409 1894 409 
Q 2359 409 2629 706 
Q 2900 1003 2900 1516 
L 2900 3500 
L 3475 3500 
L 3475 0 
L 2900 0 
L 2900 538 
Q 2691 219 2414 64 
Q 2138 -91 1772 -91 
Q 1169 -91 856 284 
Q 544 659 544 1381 
z
M 1991 3584 
L 1991 3584 
z
" transform="scale(0.015625)"/>
       <path id="DejaVuSans-6d" d="M 3328 2828 
Q 3544 3216 3844 3400 
Q 4144 3584 4550 3584 
Q 5097 3584 5394 3201 
Q 5691 2819 5691 2113 
L 5691 0 
L 5113 0 
L 5113 2094 
Q 5113 2597 4934 2840 
Q 4756 3084 4391 3084 
Q 3944 3084 3684 2787 
Q 3425 2491 3425 1978 
L 3425 0 
L 2847 0 
L 2847 2094 
Q 2847 2600 2669 2842 
Q 2491 3084 2119 3084 
Q 1678 3084 1418 2786 
Q 1159 2488 1159 1978 
L 1159 0 
L 581 0 
L 581 3500 
L 1159 3500 
L 1159 2956 
Q 1356 3278 1631 3431 
Q 1906 3584 2284 3584 
Q 2666 3584 2933 3390 
Q 3200 3197 3328 2828 
z
" transform="scale(0.015625)"/>
       <path id="DejaVuSans-62" d="M 3116 1747 
Q 3116 2381 2855 2742 
Q 2594 3103 2138 3103 
Q 1681 3103 1420 2742 
Q 1159 2381 1159 1747 
Q 1159 1113 1420 752 
Q 1681 391 2138 391 
Q 2594 391 2855 752 
Q 3116 1113 3116 1747 
z
M 1159 2969 
Q 1341 3281 1617 3432 
Q 1894 3584 2278 3584 
Q 2916 3584 3314 3078 
Q 3713 2572 3713 1747 
Q 3713 922 3314 415 
Q 2916 -91 2278 -91 
Q 1894 -91 1617 61 
Q 1341 213 1159 525 
L 1159 0 
L 581 0 
L 581 4863 
L 1159 4863 
L 1159 2969 
z
" transform="scale(0.015625)"/>
       <path id="DejaVuSans-65" d="M 3597 1894 
L 3597 1613 
L 953 1613 
Q 991 1019 1311 708 
Q 1631 397 2203 397 
Q 2534 397 2845 478 
Q 3156 559 3463 722 
L 3463 178 
Q 3153 47 2828 -22 
Q 2503 -91 2169 -91 
Q 1331 -91 842 396 
Q 353 884 353 1716 
Q 353 2575 817 3079 
Q 1281 3584 2069 3584 
Q 2775 3584 3186 3129 
Q 3597 2675 3597 1894 
z
M 3022 2063 
Q 3016 2534 2758 2815 
Q 2500 3097 2075 3097 
Q 1594 3097 1305 2825 
Q 1016 2553 972 2059 
L 3022 2063 
z
" transform="scale(0.015625)"/>
       <path id="DejaVuSans-72" d="M 2631 2963 
Q 2534 3019 2420 3045 
Q 2306 3072 2169 3072 
Q 1681 3072 1420 2755 
Q 1159 2438 1159 1844 
L 1159 0 
L 581 0 
L 581 3500 
L 1159 3500 
L 1159 2956 
Q 1341 3275 1631 3429 
Q 1922 3584 2338 3584 
Q 2397 3584 2469 3576 
Q 2541 3569 2628 3553 
L 2631 2963 
z
" transform="scale(0.015625)"/>
       <path id="DejaVuSans-20" transform="scale(0.015625)"/>
       <path id="DejaVuSans-6f" d="M 1959 3097 
Q 1497 3097 1228 2736 
Q 959 2375 959 1747 
Q 959 1119 1226 758 
Q 1494 397 1959 397 
Q 2419 397 2687 759 
Q 2956 1122 2956 1747 
Q 2956 2369 2687 2733 
Q 2419 3097 1959 3097 
z
M 1959 3584 
Q 2709 3584 3137 3096 
Q 3566 2609 3566 1747 
Q 3566 888 3137 398 
Q 2709 -91 1959 -91 
Q 1206 -91 779 398 
Q 353 888 353 1747 
Q 353 2609 779 3096 
Q 1206 3584 1959 3584 
z
" transform="scale(0.015625)"/>
       <path id="DejaVuSans-66" d="M 2375 4863 
L 2375 4384 
L 1825 4384 
Q 1516 4384 1395 4259 
Q 1275 4134 1275 3809 
L 1275 3500 
L 2222 3500 
L 2222 3053 
L 1275 3053 
L 1275 0 
L 697 0 
L 697 3053 
L 147 3053 
L 147 3500 
L 697 3500 
L 697 3744 
Q 697 4328 969 4595 
Q 1241 4863 1831 4863 
L 2375 4863 
z
" transform="scale(0.015625)"/>
       <path id="DejaVuSans-4d" d="M 628 4666 
L 1569 4666 
L 2759 1491 
L 3956 4666 
L 4897 4666 
L 4897 0 
L 4281 0 
L 4281 4097 
L 3078 897 
L 2444 897 
L 1241 4097 
L 1241 0 
L 628 0 
L 628 4666 
z
" transform="scale(0.015625)"/>
       <path id="DejaVuSans-6e" d="M 3513 2113 
L 3513 0 
L 2938 0 
L 2938 2094 
Q 2938 2591 2744 2837 
Q 2550 3084 2163 3084 
Q 1697 3084 1428 2787 
Q 1159 2491 1159 1978 
L 1159 0 
L 581 0 
L 581 3500 
L 1159 3500 
L 1159 2956 
Q 1366 3272 1645 3428 
Q 1925 3584 2291 3584 
Q 2894 3584 3203 3211 
Q 3513 2838 3513 2113 
z
" transform="scale(0.015625)"/>
       <path id="DejaVuSans-74" d="M 1172 4494 
L 1172 3500 
L 2356 3500 
L 2356 3053 
L 1172 3053 
L 1172 1153 
Q 1172 725 1289 603 
Q 1406 481 1766 481 
L 2356 481 
L 2356 0 
L 1766 0 
Q 1100 0 847 248 
Q 594 497 594 1153 
L 594 3053 
L 172 3053 
L 172 3500 
L 594 3500 
L 594 4494 
L 1172 4494 
z
" transform="scale(0.015625)"/>
       <path id="DejaVuSans-43" d="M 4122 4306 
L 4122 3641 
Q 3803 3938 3442 4084 
Q 3081 4231 2675 4231 
Q 1875 4231 1450 3742 
Q 1025 3253 1025 2328 
Q 1025 1406 1450 917 
Q 1875 428 2675 428 
Q 3081 428 3442 575 
Q 3803 722 4122 1019 
L 4122 359 
Q 3791 134 3420 21 
Q 3050 -91 2638 -91 
Q 1578 -91 968 557 
Q 359 1206 359 2328 
Q 359 3453 968 4101 
Q 1578 4750 2638 4750 
Q 3056 4750 3426 4639 
Q 3797 4528 4122 4306 
z
" transform="scale(0.015625)"/>
       <path id="DejaVuSans-61" d="M 2194 1759 
Q 1497 1759 1228 1600 
Q 959 1441 959 1056 
Q 959 750 1161 570 
Q 1363 391 1709 391 
Q 2188 391 2477 730 
Q 2766 1069 2766 1631 
L 2766 1759 
L 2194 1759 
z
M 3341 1997 
L 3341 0 
L 2766 0 
L 2766 531 
Q 2569 213 2275 61 
Q 1981 -91 1556 -91 
Q 1019 -91 701 211 
Q 384 513 384 1019 
Q 384 1609 779 1909 
Q 1175 2209 1959 2209 
L 2766 2209 
L 2766 2266 
Q 2766 2663 2505 2880 
Q 2244 3097 1772 3097 
Q 1472 3097 1187 3025 
Q 903 2953 641 2809 
L 641 3341 
Q 956 3463 1253 3523 
Q 1550 3584 1831 3584 
Q 2591 3584 2966 3190 
Q 3341 2797 3341 1997 
z
" transform="scale(0.015625)"/>
       <path id="DejaVuSans-6c" d="M 603 4863 
L 1178 4863 
L 1178 0 
L 603 0 
L 603 4863 
z
" transform="scale(0.015625)"/>
       <path id="DejaVuSans-63" d="M 3122 3366 
L 3122 2828 
Q 2878 2963 2633 3030 
Q 2388 3097 2138 3097 
Q 1578 3097 1268 2742 
Q 959 2388 959 1747 
Q 959 1106 1268 751 
Q 1578 397 2138 397 
Q 2388 397 2633 464 
Q 2878 531 3122 666 
L 3122 134 
Q 2881 22 2623 -34 
Q 2366 -91 2075 -91 
Q 1284 -91 818 406 
Q 353 903 353 1747 
Q 353 2603 823 3093 
Q 1294 3584 2113 3584 
Q 2378 3584 2631 3529 
Q 2884 3475 3122 3366 
z
" transform="scale(0.015625)"/>
       <path id="DejaVuSans-79" d="M 2059 -325 
Q 1816 -950 1584 -1140 
Q 1353 -1331 966 -1331 
L 506 -1331 
L 506 -850 
L 844 -850 
Q 1081 -850 1212 -737 
Q 1344 -625 1503 -206 
L 1606 56 
L 191 3500 
L 800 3500 
L 1894 763 
L 2988 3500 
L 3597 3500 
L 2059 -325 
z
" transform="scale(0.015625)"/>
       <path id="DejaVuSans-73" d="M 2834 3397 
L 2834 2853 
Q 2591 2978 2328 3040 
Q 2066 3103 1784 3103 
Q 1356 3103 1142 2972 
Q 928 2841 928 2578 
Q 928 2378 1081 2264 
Q 1234 2150 1697 2047 
L 1894 2003 
Q 2506 1872 2764 1633 
Q 3022 1394 3022 966 
Q 3022 478 2636 193 
Q 2250 -91 1575 -91 
Q 1294 -91 989 -36 
Q 684 19 347 128 
L 347 722 
Q 666 556 975 473 
Q 1284 391 1588 391 
Q 1994 391 2212 530 
Q 2431 669 2431 922 
Q 2431 1156 2273 1281 
Q 2116 1406 1581 1522 
L 1381 1569 
Q 847 1681 609 1914 
Q 372 2147 372 2553 
Q 372 3047 722 3315 
Q 1072 3584 1716 3584 
Q 2034 3584 2315 3537 
Q 2597 3491 2834 3397 
z
" transform="scale(0.015625)"/>
      </defs>
      <use xlink:href="#DejaVuSans-4e"/>
      <use xlink:href="#DejaVuSans-75" x="74.804688"/>
      <use xlink:href="#DejaVuSans-6d" x="138.183594"/>
      <use xlink:href="#DejaVuSans-62" x="235.595703"/>
      <use xlink:href="#DejaVuSans-65" x="299.072266"/>
      <use xlink:href="#DejaVuSans-72" x="360.595703"/>
      <use xlink:href="#DejaVuSans-20" x="401.708984"/>
      <use xlink:href="#DejaVuSans-6f" x="433.496094"/>
      <use xlink:href="#DejaVuSans-66" x="494.677734"/>
      <use xlink:href="#DejaVuSans-20" x="529.882812"/>
      <use xlink:href="#DejaVuSans-4d" x="561.669922"/>
      <use xlink:href="#DejaVuSans-6f" x="647.949219"/>
      <use xlink:href="#DejaVuSans-6e" x="709.130859"/>
      <use xlink:href="#DejaVuSans-74" x="772.509766"/>
      <use xlink:href="#DejaVuSans-65" x="811.71875"/>
      <use xlink:href="#DejaVuSans-20" x="873.242188"/>
      <use xlink:href="#DejaVuSans-43" x="905.029297"/>
      <use xlink:href="#DejaVuSans-61" x="974.853516"/>
      <use xlink:href="#DejaVuSans-72" x="1036.132812"/>
      <use xlink:href="#DejaVuSans-6c" x="1077.246094"/>
      <use xlink:href="#DejaVuSans-6f" x="1105.029297"/>
      <use xlink:href="#DejaVuSans-20" x="1166.210938"/>
      <use xlink:href="#DejaVuSans-63" x="1197.998047"/>
      <use xlink:href="#DejaVuSans-79" x="1252.978516"/>
      <use xlink:href="#DejaVuSans-63" x="1312.158203"/>
      <use xlink:href="#DejaVuSans-6c" x="1367.138672"/>
      <use xlink:href="#DejaVuSans-65" x="1394.921875"/>
      <use xlink:href="#DejaVuSans-73" x="1456.445312"/>
     </g>
    </g>
   </g>
   <g id="matplotlib.axis_2">
    <g id="ytick_1">
     <g id="line2d_10">
      <defs>
       <path id="m1009161146" d="M 0 0 
L -3.5 0 
" style="stroke: #000000; stroke-width: 0.8"/>
      </defs>
      <g>
       <use xlink:href="#m1009161146" x="57.6" y="288.011203" style="stroke: #000000; stroke-width: 0.8"/>
      </g>
     </g>
     <g id="text_11">
      <!-- −0.05 -->
      <g transform="translate(19.954687 291.810421)scale(0.1 -0.1)">
       <defs>
        <path id="DejaVuSans-2212" d="M 678 2272 
L 4684 2272 
L 4684 1741 
L 678 1741 
L 678 2272 
z
" transform="scale(0.015625)"/>
        <path id="DejaVuSans-2e" d="M 684 794 
L 1344 794 
L 1344 0 
L 684 0 
L 684 794 
z
" transform="scale(0.015625)"/>
       </defs>
       <use xlink:href="#DejaVuSans-2212"/>
       <use xlink:href="#DejaVuSans-30" x="83.789062"/>
       <use xlink:href="#DejaVuSans-2e" x="147.412109"/>
       <use xlink:href="#DejaVuSans-30" x="179.199219"/>
       <use xlink:href="#DejaVuSans-35" x="242.822266"/>
      </g>
     </g>
    </g>
    <g id="ytick_2">
     <g id="line2d_11">
      <g>
       <use xlink:href="#m1009161146" x="57.6" y="250.627216" style="stroke: #000000; stroke-width: 0.8"/>
      </g>
     </g>
     <g id="text_12">
      <!-- 0.00 -->
      <g transform="translate(28.334375 254.426435)scale(0.1 -0.1)">
       <use xlink:href="#DejaVuSans-30"/>
       <use xlink:href="#DejaVuSans-2e" x="63.623047"/>
       <use xlink:href="#DejaVuSans-30" x="95.410156"/>
       <use xlink:href="#DejaVuSans-30" x="159.033203"/>
      </g>
     </g>
    </g>
    <g id="ytick_3">
     <g id="line2d_12">
      <g>
       <use xlink:href="#m1009161146" x="57.6" y="213.24323" style="stroke: #000000; stroke-width: 0.8"/>
      </g>
     </g>
     <g id="text_13">
      <!-- 0.05 -->
      <g transform="translate(28.334375 217.042449)scale(0.1 -0.1)">
       <use xlink:href="#DejaVuSans-30"/>
       <use xlink:href="#DejaVuSans-2e" x="63.623047"/>
       <use xlink:href="#DejaVuSans-30" x="95.410156"/>
       <use xlink:href="#DejaVuSans-35" x="159.033203"/>
      </g>
     </g>
    </g>
    <g id="ytick_4">
     <g id="line2d_13">
      <g>
       <use xlink:href="#m1009161146" x="57.6" y="175.859244" style="stroke: #000000; stroke-width: 0.8"/>
      </g>
     </g>
     <g id="text_14">
      <!-- 0.10 -->
      <g transform="translate(28.334375 179.658463)scale(0.1 -0.1)">
       <use xlink:href="#DejaVuSans-30"/>
       <use xlink:href="#DejaVuSans-2e" x="63.623047"/>
       <use xlink:href="#DejaVuSans-31" x="95.410156"/>
       <use xlink:href="#DejaVuSans-30" x="159.033203"/>
      </g>
     </g>
    </g>
    <g id="ytick_5">
     <g id="line2d_14">
      <g>
       <use xlink:href="#m1009161146" x="57.6" y="138.475257" style="stroke: #000000; stroke-width: 0.8"/>
      </g>
     </g>
     <g id="text_15">
      <!-- 0.15 -->
      <g transform="translate(28.334375 142.274476)scale(0.1 -0.1)">
       <use xlink:href="#DejaVuSans-30"/>
       <use xlink:href="#DejaVuSans-2e" x="63.623047"/>
       <use xlink:href="#DejaVuSans-31" x="95.410156"/>
       <use xlink:href="#DejaVuSans-35" x="159.033203"/>
      </g>
     </g>
    </g>
    <g id="ytick_6">
     <g id="line2d_15">
      <g>
       <use xlink:href="#m1009161146" x="57.6" y="101.091271" style="stroke: #000000; stroke-width: 0.8"/>
      </g>
     </g>
     <g id="text_16">
      <!-- 0.20 -->
      <g transform="translate(28.334375 104.89049)scale(0.1 -0.1)">
       <use xlink:href="#DejaVuSans-30"/>
       <use xlink:href="#DejaVuSans-2e" x="63.623047"/>
       <use xlink:href="#DejaVuSans-32" x="95.410156"/>
       <use xlink:href="#DejaVuSans-30" x="159.033203"/>
      </g>
     </g>
    </g>
    <g id="ytick_7">
     <g id="line2d_16">
      <g>
       <use xlink:href="#m1009161146" x="57.6" y="63.707285" style="stroke: #000000; stroke-width: 0.8"/>
      </g>
     </g>
     <g id="text_17">
      <!-- 0.25 -->
      <g transform="translate(28.334375 67.506504)scale(0.1 -0.1)">
       <use xlink:href="#DejaVuSans-30"/>
       <use xlink:href="#DejaVuSans-2e" x="63.623047"/>
       <use xlink:href="#DejaVuSans-32" x="95.410156"/>
       <use xlink:href="#DejaVuSans-35" x="159.033203"/>
      </g>
     </g>
    </g>
    <g id="text_18">
     <!-- &lt;ϵ&gt; -->
     <g transform="translate(13.875 185.98425)rotate(-90)scale(0.1 -0.1)">
      <defs>
       <path id="DejaVuSans-3c" d="M 4684 3150 
L 1459 2003 
L 4684 863 
L 4684 294 
L 678 1747 
L 678 2266 
L 4684 3719 
L 4684 3150 
z
" transform="scale(0.015625)"/>
       <path id="DejaVuSans-3f5" d="M 3075 2944 
Q 2959 2984 2844 3016 
Q 2534 3097 2203 3097 
Q 1631 3097 1313 2788 
Q 1016 2500 959 1972 
L 3075 1972 
L 3075 1522 
L 959 1522 
Q 1016 994 1313 706 
Q 1631 397 2203 397 
Q 2603 397 2844 478 
L 3075 556 
L 3075 34 
L 2828 -22 
Q 2503 -91 2169 -91 
Q 1331 -91 844 397 
Q 353 884 353 1746 
Q 353 2609 844 3097 
Q 1331 3584 2169 3584 
Q 2484 3584 2828 3516 
Q 2953 3491 3075 3453 
L 3075 2944 
z
" transform="scale(0.015625)"/>
       <path id="DejaVuSans-3e" d="M 678 3150 
L 678 3719 
L 4684 2266 
L 4684 1747 
L 678 294 
L 678 863 
L 3897 2003 
L 678 3150 
z
" transform="scale(0.015625)"/>
      </defs>
      <use xlink:href="#DejaVuSans-3c"/>
      <use xlink:href="#DejaVuSans-3f5" x="83.789062"/>
      <use xlink:href="#DejaVuSans-3e" x="145.3125"/>
     </g>
    </g>
   </g>
   <g id="line2d_17">
    <path d="M 73.832727 243.150419 
L 73.913901 238.165863 
L 73.954488 241.28122 
L 74.076249 242.082284 
L 74.238596 238.392484 
L 74.644465 235.673622 
L 74.928573 230.867088 
L 75.821485 222.514459 
L 76.14618 218.399678 
L 76.430288 215.773827 
L 76.470875 215.848744 
L 76.67381 216.086507 
L 76.79557 215.971214 
L 76.917331 216.350437 
L 76.957918 216.214808 
L 77.160852 214.504341 
L 77.404374 212.65518 
L 77.810243 211.657252 
L 78.134938 210.518012 
L 78.703154 208.608887 
L 79.027849 204.549285 
L 79.717827 195.626699 
L 80.042522 192.560689 
L 81.057194 181.498169 
L 82.437148 168.171601 
L 83.045952 162.611107 
L 84.263558 155.979188 
L 85.887034 147.005535 
L 86.495837 144.82904 
L 87.672857 142.694414 
L 88.281661 141.491397 
L 88.565769 141.207279 
L 88.971638 141.033817 
L 89.418094 140.106695 
L 90.270418 137.720101 
L 91.731546 132.250076 
L 92.259176 131.376038 
L 92.746219 130.950609 
L 93.63913 130.15732 
L 94.288521 128.970005 
L 95.222019 127.571844 
L 95.790236 126.032371 
L 96.358452 124.907113 
L 96.926669 124.295511 
L 97.210777 124.31196 
L 97.454298 124.226725 
L 97.738406 124.02859 
L 98.874839 123.908961 
L 99.52423 123.179973 
L 100.214207 121.764616 
L 101.878269 117.416858 
L 102.162378 117.296481 
L 102.852355 117.161899 
L 103.420571 116.843388 
L 103.745266 116.784321 
L 104.313483 117.019092 
L 105.246981 117.357044 
L 105.53109 117.316669 
L 106.221067 117.345828 
L 106.870457 117.265079 
L 107.235739 117.433307 
L 107.560434 117.743594 
L 108.00689 118.59894 
L 108.615693 119.757095 
L 109.143323 120.234115 
L 109.427431 120.285705 
L 109.914474 120.144394 
L 110.48269 119.981399 
L 112.755556 118.973527 
L 113.080251 118.786607 
L 114.176097 117.833316 
L 114.500793 117.513309 
L 115.961921 115.735326 
L 116.976593 115.138678 
L 117.260701 115.053442 
L 117.950678 114.725211 
L 118.478308 114.551002 
L 119.005938 114.420905 
L 120.223544 114.56745 
L 120.507653 114.440345 
L 122.415236 112.543481 
L 122.983453 111.52888 
L 123.714017 110.391659 
L 124.119886 109.996884 
L 124.809863 109.341169 
L 125.418666 108.550124 
L 125.905709 108.00357 
L 126.392752 107.119813 
L 127.691532 104.807239 
L 128.259749 104.222554 
L 129.274421 103.180288 
L 129.802051 102.516349 
L 130.735549 101.080804 
L 132.237264 99.663203 
L 133.536045 98.576824 
L 134.144848 97.84335 
L 135.281281 95.859756 
L 136.295953 94.18271 
L 136.904757 93.359515 
L 137.432386 92.737446 
L 138.528232 91.716115 
L 139.055862 90.745627 
L 139.786426 89.016244 
L 142.181053 83.515564 
L 143.439246 81.004855 
L 144.332158 79.215658 
L 146.686198 75.684366 
L 147.579109 74.873134 
L 148.106739 74.516491 
L 148.87789 73.702267 
L 150.866647 71.074173 
L 151.516038 70.360139 
L 151.840733 69.955644 
L 152.490123 69.109271 
L 154.032425 67.432225 
L 154.316533 67.117452 
L 154.965923 66.152197 
L 157.644658 61.586865 
L 158.618744 60.330015 
L 160.485741 58.582688 
L 161.825108 57.871645 
L 162.596259 57.645098 
L 163.448584 57.597994 
L 165.031473 57.464159 
L 166.654948 57.155367 
L 167.426099 57.432757 
L 168.887227 58.122865 
L 169.698965 58.116136 
L 171.281854 57.977067 
L 172.945916 57.313875 
L 173.838828 56.961718 
L 176.152281 56.352359 
L 177.491648 56.247684 
L 178.912189 55.855152 
L 179.764514 55.316823 
L 181.875033 53.709311 
L 182.524423 53.573234 
L 183.417334 53.650245 
L 187.029568 54.08689 
L 187.760132 54.267828 
L 190.114172 54.409887 
L 192.914667 55.812535 
L 194.213448 56.754611 
L 196.486314 57.89258 
L 197.58216 58.105668 
L 198.353311 58.252213 
L 200.260894 59.25859 
L 201.397327 59.457473 
L 202.046718 59.625701 
L 204.076062 60.18347 
L 205.253082 60.371886 
L 206.308341 60.645536 
L 209.920575 61.46275 
L 211.42229 61.599576 
L 213.776329 61.882199 
L 216.617412 62.241085 
L 218.524996 62.174541 
L 219.214973 62.321834 
L 220.43258 62.629131 
L 221.284904 62.831004 
L 224.978311 63.139048 
L 225.708875 63.281855 
L 226.398853 63.450831 
L 229.118174 64.619454 
L 232.243365 66.413138 
L 233.136277 66.857259 
L 237.438487 68.643466 
L 238.250225 68.77431 
L 240.360743 68.792255 
L 242.633609 69.514513 
L 244.541193 69.901064 
L 245.596452 70.210603 
L 248.275187 70.253968 
L 249.086925 70.043123 
L 250.06101 69.60573 
L 251.522138 68.973193 
L 252.41505 68.868518 
L 253.06444 68.905902 
L 255.986697 68.960483 
L 258.137802 68.692066 
L 259.314822 68.431125 
L 260.613602 68.302524 
L 262.358838 67.871861 
L 263.25175 67.687184 
L 264.063488 67.752232 
L 266.539288 67.873356 
L 267.878656 67.664754 
L 269.989174 66.927541 
L 272.302627 66.189581 
L 273.236125 65.947333 
L 274.169624 65.471809 
L 275.387231 64.851235 
L 276.929533 64.509545 
L 278.471834 64.392159 
L 280.217071 64.565621 
L 281.191156 64.670296 
L 283.342261 64.73983 
L 285.168672 64.831047 
L 287.116842 64.937966 
L 288.45621 65.099464 
L 289.957925 65.367881 
L 291.824922 65.906211 
L 292.63666 66.019858 
L 294.381896 66.259116 
L 295.721263 66.769033 
L 296.492414 67.045675 
L 298.034716 67.55634 
L 300.145235 68.102146 
L 301.484602 68.363834 
L 303.108078 68.349628 
L 305.665052 68.08495 
L 307.004419 67.827 
L 308.668482 67.62737 
L 309.764328 67.717091 
L 312.402476 67.658772 
L 314.553581 67.195211 
L 318.693444 65.930137 
L 319.708116 65.729758 
L 321.6157 65.420219 
L 323.239176 65.224327 
L 325.349694 64.724129 
L 331.640662 62.405574 
L 332.614748 62.099773 
L 333.548246 61.815655 
L 334.725266 61.710232 
L 336.10522 61.791729 
L 339.270998 62.14613 
L 341.706211 62.081081 
L 344.222599 61.91061 
L 347.753658 62.085567 
L 348.524809 62.096783 
L 349.82359 61.963696 
L 350.635328 61.853787 
L 352.137043 61.713223 
L 354.856364 61.755093 
L 357.00747 61.703503 
L 359.767378 61.747616 
L 361.390854 61.561444 
L 365.246609 61.171155 
L 367.478888 61.281064 
L 369.305298 61.340131 
L 370.725839 61.291532 
L 373.3234 61.400693 
L 376.529764 61.687802 
L 379.086739 62.220897 
L 381.319018 62.810069 
L 382.739559 62.911754 
L 388.543484 62.911754 
L 393.292151 63.719995 
L 396.904384 64.671792 
L 398.487273 64.926003 
L 398.487273 64.926003 
" clip-path="url(#pb339ff729e)" style="fill: none; stroke: #228b22; stroke-width: 1.5; stroke-linecap: square"/>
   </g>
   <g id="line2d_18">
    <path d="M 73.832727 295.488 
L 73.995075 283.525124 
L 74.157422 280.534405 
L 74.563291 269.12242 
L 75.902659 240.706105 
L 76.227354 238.664341 
L 76.470875 239.298747 
L 76.754983 240.794705 
L 76.836157 240.458772 
L 77.079679 239.458152 
L 77.160852 239.547126 
L 77.201439 239.500994 
L 77.282613 239.325065 
L 77.729069 237.600617 
L 78.337872 234.538719 
L 79.068436 232.050216 
L 79.758413 228.196825 
L 79.839587 228.046317 
L 80.570151 224.928492 
L 80.732499 224.567737 
L 82.274801 216.069385 
L 83.167712 213.178481 
L 83.898276 208.498903 
L 84.62884 202.714105 
L 85.724686 194.169771 
L 87.145228 187.199452 
L 88.281661 184.027196 
L 88.565769 183.767377 
L 88.728116 183.579859 
L 89.377507 182.420881 
L 89.905136 180.944214 
L 90.51394 178.418028 
L 91.731546 172.307017 
L 93.314435 166.470629 
L 93.882652 164.712087 
L 94.369694 163.10308 
L 94.81615 161.62716 
L 95.871409 158.225217 
L 96.683147 156.756027 
L 97.332537 154.89879 
L 98.225449 151.578345 
L 98.915426 149.902047 
L 100.092446 146.574872 
L 100.660663 145.251479 
L 100.944771 144.577072 
L 101.675335 142.752733 
L 102.690007 141.394199 
L 103.136463 141.122791 
L 105.977545 139.26705 
L 106.708109 138.419929 
L 107.154565 138.32946 
L 107.722782 138.233757 
L 108.493933 137.950386 
L 108.899802 137.887581 
L 109.265084 138.064781 
L 109.955061 138.785545 
L 111.497363 140.535863 
L 112.146753 140.722035 
L 112.552622 140.894749 
L 113.36436 140.576237 
L 115.474878 137.528695 
L 116.895419 134.990322 
L 117.585396 134.033292 
L 118.031852 133.769361 
L 118.397134 133.672163 
L 118.721829 133.612348 
L 119.817675 133.075514 
L 120.913521 132.003342 
L 123.916951 126.911643 
L 124.972211 125.763207 
L 125.865122 124.791971 
L 126.392752 124.214014 
L 127.285663 123.153057 
L 128.056814 122.017331 
L 129.477356 120.083084 
L 130.004985 119.472977 
L 133.738979 113.574532 
L 134.428956 112.451517 
L 135.362455 111.184947 
L 136.093019 110.209225 
L 137.107691 108.922469 
L 137.919429 108.028244 
L 140.029947 105.062946 
L 140.51699 104.447605 
L 141.653423 103.036734 
L 142.22164 102.603827 
L 143.155138 102.194099 
L 143.642181 102.146995 
L 144.69744 101.677452 
L 145.428004 101.629601 
L 146.889132 101.551842 
L 149.283759 101.441185 
L 150.826061 101.166039 
L 153.667143 100.213495 
L 154.519468 99.862086 
L 154.965923 99.805262 
L 155.818248 99.87031 
L 156.264704 99.737223 
L 157.198203 99.213847 
L 159.674003 97.391752 
L 161.216305 96.526686 
L 162.596259 96.228362 
L 163.042715 96.147613 
L 163.732692 95.861251 
L 164.422669 95.19133 
L 165.356168 94.340471 
L 165.84321 93.934481 
L 167.466686 92.202107 
L 169.211922 90.160941 
L 170.226595 88.919793 
L 170.875985 88.085382 
L 171.687723 87.297328 
L 173.757654 85.521588 
L 174.609979 84.782881 
L 175.38113 84.306609 
L 176.274042 83.911086 
L 177.978691 83.708465 
L 179.115124 83.215744 
L 179.967449 82.599656 
L 180.535665 82.379091 
L 181.225642 82.273668 
L 183.011466 82.086748 
L 184.147898 82.337221 
L 185.203158 82.408998 
L 186.664286 82.954804 
L 188.855978 83.882675 
L 190.925909 84.500258 
L 191.69706 84.46736 
L 193.077015 84.387358 
L 195.918097 83.223221 
L 196.811009 82.906205 
L 197.70392 82.87555 
L 198.109789 82.889008 
L 198.962114 82.76265 
L 199.692678 82.722276 
L 200.70735 82.732743 
L 202.899042 82.943589 
L 204.076062 83.203034 
L 204.766039 83.3107 
L 205.374843 83.226959 
L 206.105407 83.181351 
L 207.24184 83.375 
L 208.134751 83.379486 
L 209.636466 83.432571 
L 211.462876 83.757064 
L 212.924005 83.976134 
L 214.54748 84.25801 
L 215.602739 84.290908 
L 216.617412 84.622877 
L 217.794432 84.877836 
L 219.539668 84.988493 
L 220.757275 84.950361 
L 223.151901 84.487547 
L 224.978311 83.767532 
L 225.871223 83.490143 
L 227.291764 83.047516 
L 228.144089 82.695359 
L 231.634562 81.627672 
L 233.014516 80.94205 
L 234.39447 80.595874 
L 235.936772 80.401478 
L 236.951444 80.002217 
L 239.873701 77.928153 
L 240.888373 77.224587 
L 242.187153 76.307184 
L 249.452207 72.683928 
L 250.385705 72.354201 
L 251.400378 72.298125 
L 252.739745 72.406538 
L 254.403808 72.57028 
L 255.093785 72.678694 
L 256.230218 73.063749 
L 256.920195 73.166181 
L 259.314822 73.409925 
L 260.77595 73.251416 
L 263.698206 72.665236 
L 264.834639 72.364668 
L 265.646377 72.233077 
L 267.066918 71.990828 
L 267.95983 71.854751 
L 268.812154 71.782973 
L 270.029761 71.286514 
L 272.302627 70.277894 
L 274.129037 69.682741 
L 275.346644 69.63489 
L 276.970119 69.799379 
L 278.390661 69.976579 
L 279.283572 69.88611 
L 280.014136 69.88611 
L 281.92172 70.206865 
L 283.058153 70.470796 
L 284.113412 70.817719 
L 287.482124 71.880172 
L 288.375036 71.95494 
L 290.444967 71.702224 
L 291.5814 71.148193 
L 293.570158 70.244996 
L 298.64352 68.121586 
L 299.901713 67.706624 
L 301.931058 66.612021 
L 303.148664 66.054251 
L 303.757468 66.016867 
L 306.152094 66.08042 
L 307.937918 66.388464 
L 308.709069 66.57015 
L 311.30663 67.109975 
L 313.620083 67.803074 
L 315.081211 68.042332 
L 322.14333 68.972445 
L 324.984412 68.651691 
L 326.242606 68.527576 
L 328.718406 68.681598 
L 330.788338 69.025531 
L 332.005944 69.095813 
L 333.385899 68.988894 
L 335.090548 68.633746 
L 336.267568 68.227009 
L 337.891044 68.069248 
L 344.222599 67.477834 
L 345.805488 67.397832 
L 346.901334 67.250539 
L 352.29939 66.563421 
L 358.428011 66.227713 
L 361.877897 65.610877 
L 365.449543 64.736092 
L 367.641235 64.684502 
L 369.711167 64.726372 
L 371.375229 64.804879 
L 377.219742 64.909554 
L 378.234414 64.888619 
L 383.267188 64.813103 
L 384.647143 64.94619 
L 386.027097 65.232551 
L 388.624658 65.696861 
L 389.964026 65.638542 
L 391.262806 65.557792 
L 392.236891 65.61013 
L 393.495085 65.859855 
L 394.753279 65.981726 
L 398.487273 66.02584 
L 398.487273 66.02584 
" clip-path="url(#pb339ff729e)" style="fill: none; stroke: #32cd32; stroke-width: 1.5; stroke-linecap: square"/>
   </g>
   <g id="patch_3">
    <path d="M 57.6 307.584 
L 57.6 41.472 
" style="fill: none; stroke: #000000; stroke-width: 0.8; stroke-linejoin: miter; stroke-linecap: square"/>
   </g>
   <g id="patch_4">
    <path d="M 414.72 307.584 
L 414.72 41.472 
" style="fill: none; stroke: #000000; stroke-width: 0.8; stroke-linejoin: miter; stroke-linecap: square"/>
   </g>
   <g id="patch_5">
    <path d="M 57.6 307.584 
L 414.72 307.584 
" style="fill: none; stroke: #000000; stroke-width: 0.8; stroke-linejoin: miter; stroke-linecap: square"/>
   </g>
   <g id="patch_6">
    <path d="M 57.6 41.472 
L 414.72 41.472 
" style="fill: none; stroke: #000000; stroke-width: 0.8; stroke-linejoin: miter; stroke-linecap: square"/>
   </g>
   <g id="text_19">
    <!-- Energy development of an unordered lattice  -->
    <g transform="translate(101.189063 22.034625)scale(0.12 -0.12)">
     <defs>
      <path id="DejaVuSans-45" d="M 628 4666 
L 3578 4666 
L 3578 4134 
L 1259 4134 
L 1259 2753 
L 3481 2753 
L 3481 2222 
L 1259 2222 
L 1259 531 
L 3634 531 
L 3634 0 
L 628 0 
L 628 4666 
z
" transform="scale(0.015625)"/>
      <path id="DejaVuSans-67" d="M 2906 1791 
Q 2906 2416 2648 2759 
Q 2391 3103 1925 3103 
Q 1463 3103 1205 2759 
Q 947 2416 947 1791 
Q 947 1169 1205 825 
Q 1463 481 1925 481 
Q 2391 481 2648 825 
Q 2906 1169 2906 1791 
z
M 3481 434 
Q 3481 -459 3084 -895 
Q 2688 -1331 1869 -1331 
Q 1566 -1331 1297 -1286 
Q 1028 -1241 775 -1147 
L 775 -588 
Q 1028 -725 1275 -790 
Q 1522 -856 1778 -856 
Q 2344 -856 2625 -561 
Q 2906 -266 2906 331 
L 2906 616 
Q 2728 306 2450 153 
Q 2172 0 1784 0 
Q 1141 0 747 490 
Q 353 981 353 1791 
Q 353 2603 747 3093 
Q 1141 3584 1784 3584 
Q 2172 3584 2450 3431 
Q 2728 3278 2906 2969 
L 2906 3500 
L 3481 3500 
L 3481 434 
z
" transform="scale(0.015625)"/>
      <path id="DejaVuSans-64" d="M 2906 2969 
L 2906 4863 
L 3481 4863 
L 3481 0 
L 2906 0 
L 2906 525 
Q 2725 213 2448 61 
Q 2172 -91 1784 -91 
Q 1150 -91 751 415 
Q 353 922 353 1747 
Q 353 2572 751 3078 
Q 1150 3584 1784 3584 
Q 2172 3584 2448 3432 
Q 2725 3281 2906 2969 
z
M 947 1747 
Q 947 1113 1208 752 
Q 1469 391 1925 391 
Q 2381 391 2643 752 
Q 2906 1113 2906 1747 
Q 2906 2381 2643 2742 
Q 2381 3103 1925 3103 
Q 1469 3103 1208 2742 
Q 947 2381 947 1747 
z
" transform="scale(0.015625)"/>
      <path id="DejaVuSans-76" d="M 191 3500 
L 800 3500 
L 1894 563 
L 2988 3500 
L 3597 3500 
L 2284 0 
L 1503 0 
L 191 3500 
z
" transform="scale(0.015625)"/>
      <path id="DejaVuSans-70" d="M 1159 525 
L 1159 -1331 
L 581 -1331 
L 581 3500 
L 1159 3500 
L 1159 2969 
Q 1341 3281 1617 3432 
Q 1894 3584 2278 3584 
Q 2916 3584 3314 3078 
Q 3713 2572 3713 1747 
Q 3713 922 3314 415 
Q 2916 -91 2278 -91 
Q 1894 -91 1617 61 
Q 1341 213 1159 525 
z
M 3116 1747 
Q 3116 2381 2855 2742 
Q 2594 3103 2138 3103 
Q 1681 3103 1420 2742 
Q 1159 2381 1159 1747 
Q 1159 1113 1420 752 
Q 1681 391 2138 391 
Q 2594 391 2855 752 
Q 3116 1113 3116 1747 
z
" transform="scale(0.015625)"/>
      <path id="DejaVuSans-69" d="M 603 3500 
L 1178 3500 
L 1178 0 
L 603 0 
L 603 3500 
z
M 603 4863 
L 1178 4863 
L 1178 4134 
L 603 4134 
L 603 4863 
z
" transform="scale(0.015625)"/>
     </defs>
     <use xlink:href="#DejaVuSans-45"/>
     <use xlink:href="#DejaVuSans-6e" x="63.183594"/>
     <use xlink:href="#DejaVuSans-65" x="126.5625"/>
     <use xlink:href="#DejaVuSans-72" x="188.085938"/>
     <use xlink:href="#DejaVuSans-67" x="227.449219"/>
     <use xlink:href="#DejaVuSans-79" x="290.925781"/>
     <use xlink:href="#DejaVuSans-20" x="350.105469"/>
     <use xlink:href="#DejaVuSans-64" x="381.892578"/>
     <use xlink:href="#DejaVuSans-65" x="445.369141"/>
     <use xlink:href="#DejaVuSans-76" x="506.892578"/>
     <use xlink:href="#DejaVuSans-65" x="566.072266"/>
     <use xlink:href="#DejaVuSans-6c" x="627.595703"/>
     <use xlink:href="#DejaVuSans-6f" x="655.378906"/>
     <use xlink:href="#DejaVuSans-70" x="716.560547"/>
     <use xlink:href="#DejaVuSans-6d" x="780.037109"/>
     <use xlink:href="#DejaVuSans-65" x="877.449219"/>
     <use xlink:href="#DejaVuSans-6e" x="938.972656"/>
     <use xlink:href="#DejaVuSans-74" x="1002.351562"/>
     <use xlink:href="#DejaVuSans-20" x="1041.560547"/>
     <use xlink:href="#DejaVuSans-6f" x="1073.347656"/>
     <use xlink:href="#DejaVuSans-66" x="1134.529297"/>
     <use xlink:href="#DejaVuSans-20" x="1169.734375"/>
     <use xlink:href="#DejaVuSans-61" x="1201.521484"/>
     <use xlink:href="#DejaVuSans-6e" x="1262.800781"/>
     <use xlink:href="#DejaVuSans-20" x="1326.179688"/>
     <use xlink:href="#DejaVuSans-75" x="1357.966797"/>
     <use xlink:href="#DejaVuSans-6e" x="1421.345703"/>
     <use xlink:href="#DejaVuSans-6f" x="1484.724609"/>
     <use xlink:href="#DejaVuSans-72" x="1545.90625"/>
     <use xlink:href="#DejaVuSans-64" x="1585.269531"/>
     <use xlink:href="#DejaVuSans-65" x="1648.746094"/>
     <use xlink:href="#DejaVuSans-72" x="1710.269531"/>
     <use xlink:href="#DejaVuSans-65" x="1749.132812"/>
     <use xlink:href="#DejaVuSans-64" x="1810.65625"/>
     <use xlink:href="#DejaVuSans-20" x="1874.132812"/>
     <use xlink:href="#DejaVuSans-6c" x="1905.919922"/>
     <use xlink:href="#DejaVuSans-61" x="1933.703125"/>
     <use xlink:href="#DejaVuSans-74" x="1994.982422"/>
     <use xlink:href="#DejaVuSans-74" x="2034.191406"/>
     <use xlink:href="#DejaVuSans-69" x="2073.400391"/>
     <use xlink:href="#DejaVuSans-63" x="2101.183594"/>
     <use xlink:href="#DejaVuSans-65" x="2156.164062"/>
     <use xlink:href="#DejaVuSans-20" x="2217.6875"/>
    </g>
    <!--  over Monte Carlo cycles -->
    <g transform="translate(162.151875 35.472)scale(0.12 -0.12)">
     <use xlink:href="#DejaVuSans-20"/>
     <use xlink:href="#DejaVuSans-6f" x="31.787109"/>
     <use xlink:href="#DejaVuSans-76" x="92.96875"/>
     <use xlink:href="#DejaVuSans-65" x="152.148438"/>
     <use xlink:href="#DejaVuSans-72" x="213.671875"/>
     <use xlink:href="#DejaVuSans-20" x="254.785156"/>
     <use xlink:href="#DejaVuSans-4d" x="286.572266"/>
     <use xlink:href="#DejaVuSans-6f" x="372.851562"/>
     <use xlink:href="#DejaVuSans-6e" x="434.033203"/>
     <use xlink:href="#DejaVuSans-74" x="497.412109"/>
     <use xlink:href="#DejaVuSans-65" x="536.621094"/>
     <use xlink:href="#DejaVuSans-20" x="598.144531"/>
     <use xlink:href="#DejaVuSans-43" x="629.931641"/>
     <use xlink:href="#DejaVuSans-61" x="699.755859"/>
     <use xlink:href="#DejaVuSans-72" x="761.035156"/>
     <use xlink:href="#DejaVuSans-6c" x="802.148438"/>
     <use xlink:href="#DejaVuSans-6f" x="829.931641"/>
     <use xlink:href="#DejaVuSans-20" x="891.113281"/>
     <use xlink:href="#DejaVuSans-63" x="922.900391"/>
     <use xlink:href="#DejaVuSans-79" x="977.880859"/>
     <use xlink:href="#DejaVuSans-63" x="1037.060547"/>
     <use xlink:href="#DejaVuSans-6c" x="1092.041016"/>
     <use xlink:href="#DejaVuSans-65" x="1119.824219"/>
     <use xlink:href="#DejaVuSans-73" x="1181.347656"/>
    </g>
   </g>
   <g id="legend_1">
    <g id="patch_7">
     <path d="M 316.824688 302.584 
L 407.72 302.584 
Q 409.72 302.584 409.72 300.584 
L 409.72 272.22775 
Q 409.72 270.22775 407.72 270.22775 
L 316.824688 270.22775 
Q 314.824688 270.22775 314.824688 272.22775 
L 314.824688 300.584 
Q 314.824688 302.584 316.824688 302.584 
z
" style="fill: #ffffff; opacity: 0.8; stroke: #cccccc; stroke-linejoin: miter"/>
    </g>
    <g id="line2d_19">
     <path d="M 318.824688 278.326187 
L 328.824688 278.326187 
L 338.824688 278.326187 
" style="fill: none; stroke: #228b22; stroke-width: 1.5; stroke-linecap: square"/>
    </g>
    <g id="text_20">
     <!-- T = 1.0 J/kB -->
     <g transform="translate(346.824688 281.826187)scale(0.1 -0.1)">
      <defs>
       <path id="DejaVuSans-54" d="M -19 4666 
L 3928 4666 
L 3928 4134 
L 2272 4134 
L 2272 0 
L 1638 0 
L 1638 4134 
L -19 4134 
L -19 4666 
z
" transform="scale(0.015625)"/>
       <path id="DejaVuSans-3d" d="M 678 2906 
L 4684 2906 
L 4684 2381 
L 678 2381 
L 678 2906 
z
M 678 1631 
L 4684 1631 
L 4684 1100 
L 678 1100 
L 678 1631 
z
" transform="scale(0.015625)"/>
       <path id="DejaVuSans-4a" d="M 628 4666 
L 1259 4666 
L 1259 325 
Q 1259 -519 939 -900 
Q 619 -1281 -91 -1281 
L -331 -1281 
L -331 -750 
L -134 -750 
Q 284 -750 456 -515 
Q 628 -281 628 325 
L 628 4666 
z
" transform="scale(0.015625)"/>
       <path id="DejaVuSans-2f" d="M 1625 4666 
L 2156 4666 
L 531 -594 
L 0 -594 
L 1625 4666 
z
" transform="scale(0.015625)"/>
       <path id="DejaVuSans-6b" d="M 581 4863 
L 1159 4863 
L 1159 1991 
L 2875 3500 
L 3609 3500 
L 1753 1863 
L 3688 0 
L 2938 0 
L 1159 1709 
L 1159 0 
L 581 0 
L 581 4863 
z
" transform="scale(0.015625)"/>
       <path id="DejaVuSans-42" d="M 1259 2228 
L 1259 519 
L 2272 519 
Q 2781 519 3026 730 
Q 3272 941 3272 1375 
Q 3272 1813 3026 2020 
Q 2781 2228 2272 2228 
L 1259 2228 
z
M 1259 4147 
L 1259 2741 
L 2194 2741 
Q 2656 2741 2882 2914 
Q 3109 3088 3109 3444 
Q 3109 3797 2882 3972 
Q 2656 4147 2194 4147 
L 1259 4147 
z
M 628 4666 
L 2241 4666 
Q 2963 4666 3353 4366 
Q 3744 4066 3744 3513 
Q 3744 3084 3544 2831 
Q 3344 2578 2956 2516 
Q 3422 2416 3680 2098 
Q 3938 1781 3938 1306 
Q 3938 681 3513 340 
Q 3088 0 2303 0 
L 628 0 
L 628 4666 
z
" transform="scale(0.015625)"/>
      </defs>
      <use xlink:href="#DejaVuSans-54"/>
      <use xlink:href="#DejaVuSans-20" x="61.083984"/>
      <use xlink:href="#DejaVuSans-3d" x="92.871094"/>
      <use xlink:href="#DejaVuSans-20" x="176.660156"/>
      <use xlink:href="#DejaVuSans-31" x="208.447266"/>
      <use xlink:href="#DejaVuSans-2e" x="272.070312"/>
      <use xlink:href="#DejaVuSans-30" x="303.857422"/>
      <use xlink:href="#DejaVuSans-20" x="367.480469"/>
      <use xlink:href="#DejaVuSans-4a" x="399.267578"/>
      <use xlink:href="#DejaVuSans-2f" x="428.759766"/>
      <use xlink:href="#DejaVuSans-6b" x="462.451172"/>
      <use xlink:href="#DejaVuSans-42" x="520.361328"/>
     </g>
    </g>
    <g id="line2d_20">
     <path d="M 318.824688 293.004312 
L 328.824688 293.004312 
L 338.824688 293.004312 
" style="fill: none; stroke: #32cd32; stroke-width: 1.5; stroke-linecap: square"/>
    </g>
    <g id="text_21">
     <!-- T = 2.4 J/kB -->
     <g transform="translate(346.824688 296.504312)scale(0.1 -0.1)">
      <use xlink:href="#DejaVuSans-54"/>
      <use xlink:href="#DejaVuSans-20" x="61.083984"/>
      <use xlink:href="#DejaVuSans-3d" x="92.871094"/>
      <use xlink:href="#DejaVuSans-20" x="176.660156"/>
      <use xlink:href="#DejaVuSans-32" x="208.447266"/>
      <use xlink:href="#DejaVuSans-2e" x="272.070312"/>
      <use xlink:href="#DejaVuSans-34" x="303.857422"/>
      <use xlink:href="#DejaVuSans-20" x="367.480469"/>
      <use xlink:href="#DejaVuSans-4a" x="399.267578"/>
      <use xlink:href="#DejaVuSans-2f" x="428.759766"/>
      <use xlink:href="#DejaVuSans-6b" x="462.451172"/>
      <use xlink:href="#DejaVuSans-42" x="520.361328"/>
     </g>
    </g>
   </g>
  </g>
 </g>
 <defs>
  <clipPath id="pb339ff729e">
   <rect x="57.6" y="41.472" width="357.12" height="266.112"/>
  </clipPath>
 </defs>
</svg>
